<svg xmlns="http://www.w3.org/2000/svg" viewBox="0 0 200 200" width="200" height="200" role="img" aria-label="Pocket calculator">
  <rect x="40" y="20" width="120" height="160" rx="12" fill="#1f2937" stroke="#0f172a" stroke-width="3"/>
  <rect x="52" y="34" width="96" height="36" rx="4" fill="#86efac"/>
  <text x="142" y="60" font-family="monospace" font-size="22" font-weight="700" fill="#0f172a" text-anchor="end">1234</text>
  <g fill="#475569">
    <rect x="52" y="80" width="20" height="20" rx="3"/>
    <rect x="80" y="80" width="20" height="20" rx="3"/>
    <rect x="108" y="80" width="20" height="20" rx="3"/>
    <rect x="136" y="80" width="12" height="20" rx="3" fill="#f59e0b"/>
    <rect x="52" y="108" width="20" height="20" rx="3"/>
    <rect x="80" y="108" width="20" height="20" rx="3"/>
    <rect x="108" y="108" width="20" height="20" rx="3"/>
    <rect x="136" y="108" width="12" height="20" rx="3" fill="#f59e0b"/>
    <rect x="52" y="136" width="20" height="20" rx="3"/>
    <rect x="80" y="136" width="20" height="20" rx="3"/>
    <rect x="108" y="136" width="20" height="20" rx="3"/>
    <rect x="136" y="136" width="12" height="20" rx="3" fill="#f59e0b"/>
  </g>
</svg>
